<?xml version="1.0" standalone="no"?><!DOCTYPE svg PUBLIC "-//W3C//DTD SVG 1.1//EN" "http://www.w3.org/Graphics/SVG/1.1/DTD/svg11.dtd"><svg t="1505029362259" class="icon" style="" viewBox="0 0 1024 1024" version="1.1" xmlns="http://www.w3.org/2000/svg" p-id="11332" xmlns:xlink="http://www.w3.org/1999/xlink" width="200" height="200"><defs><style type="text/css"></style></defs><path d="M872.690347 426.02496l-46.821547-62.45376 19.411627-75.577173-67.17952-39.768747-11.05152-77.249707-77.213013-11.08736-39.804587-67.106987-75.577173 19.339093-62.45376-46.821547-62.45376 46.821547-75.57632-19.339093-39.80544 67.106987-77.213013 11.08736-11.050667 77.249707-67.14368 39.768747 19.339947 75.577173-46.785707 62.45376 46.785707 62.41792-19.339947 75.61216 67.14368 39.7696 11.050667 77.249707 77.213013 11.049813 7.560533 12.7232L233.721173 888.430933l89.46432-9.378133 32.280747 79.64928 118.14656-200.776533L512 786.717013l33.11872-24.830293 98.115413 162.752853 26.6112-96.698027 95.171413 26.391893L678.6048 711.066453l11.232427-18.939733 77.213013-11.050667 11.05152-77.248853 67.17952-39.7696-19.411627-75.61216L872.690347 426.02496zM511.99744 681.621333c-140.176213 0-253.74208-113.60256-253.74208-253.74208 0-140.13952 113.565867-253.74208 253.74208-253.74208 140.141227 0 253.74208 113.60256 253.74208 253.74208C765.741227 568.018773 652.138667 681.621333 511.99744 681.621333zM511.99744 245.93408c-100.479147 0-181.945173 81.46688-181.945173 181.945173 0 100.48 81.466027 181.94688 181.945173 181.94688s181.94688-81.46688 181.94688-181.94688C693.94432 327.40096 612.476587 245.93408 511.99744 245.93408zM511.99744 537.518933c-60.491093 0-109.638827-49.18528-109.638827-109.63968 0-60.4544 49.14944-109.638827 109.638827-109.638827 60.456107 0 109.63968 49.186133 109.63968 109.638827C621.637973 488.33536 572.453547 537.518933 511.99744 537.518933z" p-id="11333" fill="#E2F6EB"></path></svg>