<?xml version="1.0" standalone="no"?><!DOCTYPE svg PUBLIC "-//W3C//DTD SVG 1.1//EN" "http://www.w3.org/Graphics/SVG/1.1/DTD/svg11.dtd"><svg t="1505029400040" class="icon" style="" viewBox="0 0 1024 1024" version="1.1" xmlns="http://www.w3.org/2000/svg" p-id="12094" xmlns:xlink="http://www.w3.org/1999/xlink" width="200" height="200"><defs><style type="text/css"></style></defs><path d="M431.645392 831.430146 477.638913 804.856931 431.645392 778.290879Z" p-id="12095" fill="#E2F6EB"></path><path d="M624.042307 831.430146 624.042307 778.290879 578.048787 804.856931Z" p-id="12096" fill="#E2F6EB"></path><path d="M857.838098 676.441213c-25.288966-33.4396-55.428404-62.851467-89.51371-87.216387-20.520359-14.659885-42.139749-27.39493-64.86431-38.021965 64.958454-53.413514 103.712083-133.760446 103.712083-219.511459 0-75.953879-29.589922-147.229203-83.185584-200.915939C670.207743 77.085656 598.92628 47.494711 522.977517 47.494711c-75.948763 0-147.225109 29.590945-200.910822 83.186607-53.688783 53.594639-83.187631 125.055181-83.187631 200.916962 0 50.477648 13.375635 100.045577 38.751582 143.376455 16.765849 28.678156 38.47836 54.145178 63.950498 75.221192-59.82555 30.596855-111.314225 75.30715-150.435221 131.008776-49.013297 69.810972-74.942853 151.897525-74.942853 237.558487 0 11.775184 7.722892 21.751397 18.375509 25.142633l787.202852 0c11.490705-3.091408 19.828604-13.70207 19.516496-26.115797C939.195034 830.658573 910.334729 745.883795 857.838098 676.441213zM677.176458 877.509624c0 9.44307-5.037736 18.23634-13.287631 22.997784-4.117784 2.382257-8.701173 3.575432-13.281491 3.575432-4.582365 0-9.159614-1.193175-13.282514-3.575432l-109.48046-63.21474-109.48046 63.21474c-4.123924 2.382257-8.705266 3.575432-13.282514 3.575432-4.582365 0-9.163707-1.193175-13.287631-3.575432-8.243755-4.761444-13.282514-13.468756-13.282514-22.997784L378.511241 732.299405c0-9.43693 5.03876-18.2302 13.282514-22.997784 8.248871-4.759397 18.326391-4.759397 26.571169 0l109.48046 63.216787 109.48046-63.216787c8.243755-4.759397 18.322297-4.759397 26.566052 0 8.249895 4.76656 13.288654 13.560854 13.286608 22.997784L677.178505 877.509624z" p-id="12097" fill="#E2F6EB"></path></svg>