<?xml version="1.0" standalone="no"?><!DOCTYPE svg PUBLIC "-//W3C//DTD SVG 1.1//EN" "http://www.w3.org/Graphics/SVG/1.1/DTD/svg11.dtd"><svg t="1505029295038" class="icon" style="" viewBox="0 0 1024 1024" version="1.1" xmlns="http://www.w3.org/2000/svg" p-id="10242" xmlns:xlink="http://www.w3.org/1999/xlink" width="200" height="200"><defs><style type="text/css"></style></defs><path d="M604.772428 625.289206c8.208962-5.513574 17.60189-19.138896 27.889187-32.405037-5.315052 2.966565-11.847839 5.693676-20.103874 7.668657-11.869329 2.837628-16.112979-1.180895-28.89612-1.864464-11.750625-0.629333-35.395138-17.545608-45.003983-11.731182 0.284479-0.001023 0.558725 0.01535 0.848321 0.005117l-2.453888 1.316995c0.476861-0.534166 1.01819-0.966001 1.605567-1.322112-7.231705 0.031722-12.799514-2.691295-17.430998-7.000438-0.997724 0.559748-2.060939 1.027399-3.207042 1.379417-7.136537 2.190899-10.001795 13.997805-14.329357 22.316262 5.811356 1.211595 12.69002 3.838422 24.929786 8.420787C556.697503 622.587678 582.159408 640.47507 604.772428 625.289206z" p-id="10243" fill="#E2F6EB"></path><path d="M957.883675 514.607384c0-247.101841-200.316282-447.418123-447.419146-447.418123-247.101841 0-447.418123 200.316282-447.418123 447.418123 0 247.102864 200.316282 447.419146 447.418123 447.419146C757.567393 962.025507 957.883675 761.710248 957.883675 514.607384zM267.583826 487.615637c2.838651-9.403161 1.896186-15.789615 3.984754-25.496697 4.952802-1.019213 9.622148-7.154957 13.362332-4.968152 2.551102-29.27986 17.306154-45.792952 38.429241-61.568241 12.151761-9.073656 21.22951-13.772678 32.750915-6.5553 0.506537 0.317225 0.938372 0.611937 1.314948 0.88823 0.565888 0.053212 1.159406 0.130983 1.808182 0.25685 3.464915-9.403161 2.314719-15.790638 4.863774-25.497721 6.043646-1.01819 11.743462-7.154957 16.308431-4.967128 3.112897-29.280884 21.12104-45.793976 46.90017-61.569264 14.82873-9.073656 25.907043-13.771655 39.97034-6.554276 2.416026 1.239224 3.526313 2.162246 3.977591 2.792603 0.603751-0.641613 2.020006-1.578961 5.004991-2.792603 11.341303-4.612041 20.330024-0.265036 32.601512-2.927679 10.402931-2.258437 22.844288-4.184299 33.589003-0.025583 14.520715 5.618974 15.852036-3.886517 25.01472 3.5038 7.379061 5.949502 20.151969 1.694595 34.538631 2.084475 10.822486 0.291642 36.482913 26.555819 42.302455 35.620265 5.132904 7.992021 36.499285 18.682501 25.541723 20.170388 7.80271 6.008854 3.278673 2.533706 0.159636 0.134053 8.691963 6.89913 4.348028 21.782096 9.800203 30.56411 3.330862-0.332575 6.884804-0.664126 10.567683-0.542352 8.867972 0.291642 29.893844 26.555819 34.662451 35.620265 4.204765 7.992021 29.907147 18.682501 20.927635 20.170388 6.396687 6.010901 2.684132 2.530636 0.127913 0.130983 7.516184 7.274684 3.136433 23.439852 8.835226 31.954783 4.666276 6.970762-4.213975 6.456039-0.712221 13.490246 2.460028 4.942569 6.414083 26.106588 4.52506 31.145347 0.25378 22.131043 0.322341 51.893904-16.850783 57.163931-13.764492 4.223185-11.642155 44.23241-34.760688 25.960255-0.417509 8.836249-6.976902-5.265934-10.836813 2.818185-14.4542 0.766456-11.382235-31.579229-24.173562-32.118512-6.998391 12.958126-16.685008 42.687218-24.124444 46.858214-11.488659 6.439666-14.334473 11.980869-22.070668 21.231557-13.235442 15.821337-47.739281 23.48897-62.509682 37.34556-8.370645 7.850805 3.829212 21.413706-1.36509 30.146601-9.231245 15.519462-7.141654 36.96489-3.799536 54.134945 3.53143 18.144242 2.411933 34.803667 3.944845 53.40942-13.156648 2.28095-27.897374 2.051729-42.095747 1.534959-2.717901-38.503942-1.968841-76.581166-4.600785-114.920356-1.183965-17.225313-22.484084-84.235496-55.549154-86.322018-0.071631 0.141216-0.147356 0.271176-0.221034 0.404206 0.075725 0.001023 0.140193-0.001023 0.216941 0.001023l-0.216941 0c-5.232165 9.378601-16.312524 0.333598-1.654686 0l-4.538363 0c2.184759-0.416486 4.322445-0.536212 6.415107-0.405229 0.254803-0.49835 0.490164-1.047866 0.709151-1.645476-16.45374-4.872984-35.544541-16.236799-49.013297 3.777023-3.218298-9.096169-33.703613-35.092239-33.703613-20.709671 0 12.205996-5.368264 19.532869-18.150382 18.8493-11.751648-0.629333-35.394115-17.545608-45.003983-11.733229 0.284479-0.001023 0.557702 0.01535 0.847298 0.005117l-2.452865 1.316995c0.476861-0.534166 1.019213-0.966001 1.606591-1.322112-24.058952 0.107447-29.585829-30.42187-44.229341-47.477314-10.864442-12.655228-6.361895-11.726066-6.361895-32.249495C264.195659 508.423545 253.178745 484.188584 267.583826 487.615637z" p-id="10244" fill="#E2F6EB"></path><path d="M472.422098 610.116645c3.858888-8.086166 10.419304 6.018064 10.836813-2.820232 11.132548 8.800433 16.411785 4.081968 20.431332-3.645017-10.044774-2.093684-16.894785 0.045025-42.696428 3.645017-0.103354 0.344854-0.218988 0.660032-0.334621 0.975211C464.79028 609.495498 468.754568 610.31005 472.422098 610.116645z" p-id="10245" fill="#E2F6EB"></path><path d="M632.661615 592.884169c13.613042-7.600095 19.24225-16.777105 25.3739-18.951631 6.216585-5.504364 10.70276-7.576559 14.084787-7.435343 1.237177-2.291183 2.39249-4.069689 3.434216-5.076622C660.207995 559.794539 645.714909 576.050782 632.661615 592.884169z" p-id="10246" fill="#E2F6EB"></path></svg>